<svg xmlns="http://www.w3.org/2000/svg" xmlns:xlink="http://www.w3.org/1999/xlink" viewBox="0 0 39 42" version="1.1">
  <!-- Generator: Sketch 52 (66869) - http://www.bohemiancoding.com/sketch -->
  <title>ico-rewind</title>
  <desc>Created with Sketch.</desc>
  <g id="Quest-Weekly-Consumption-" stroke="none" stroke-width="1" fill="none" fill-rule="evenodd">
      <g id="Desktop---Welcome---Lesson-3" transform="translate(-697.000000, -1597.000000)">
          <g id="Content" transform="translate(180.000000, 197.000000)">
              <g id="Audio-(dark)" transform="translate(155.000000, 1281.000000)">
                  <g id="controls" transform="translate(230.000000, 110.000000)">
                      <g id="ico-rewind" transform="translate(133.000000, 10.000000)">
                          <g id="ico" stroke="#FFFFFF" stroke-linecap="round" stroke-width="2">
                              <path d="M0.947368421,22.0004211 C0.947368421,31.9404211 9.00631579,40.0004211 18.9473684,40.0004211 C28.8884211,40.0004211 36.9473684,31.9404211 36.9473684,22.0004211 C36.9473684,12.0593684 28.8884211,3.99936842 18.9473684,3.99936842 L12.0515789,3.99936842" id="Stroke-3"/>
                              <polyline id="Stroke-5" points="20.2722105 0 16.2722105 4 20.2722105 8"/>
                              <polyline id="Stroke-7" points="14.1669474 0 10.1669474 4 14.1669474 8"/>
                          </g>
                          <path d="M12.154,18.11 L14.73,17.2 L16.41,17.2 L16.41,27 L14.478,27 L14.478,19.244 L12.63,19.762 L12.154,18.11 Z M21.928,27.196 C20.71,27.196 19.744,26.734 19.044,25.81 C18.358,24.872 18.008,23.64 18.008,22.1 C18.008,20.56 18.358,19.328 19.044,18.404 C19.744,17.466 20.71,17.004 21.928,17.004 C23.16,17.004 24.126,17.466 24.812,18.404 C25.498,19.328 25.848,20.56 25.848,22.1 C25.848,23.64 25.498,24.872 24.812,25.81 C24.126,26.734 23.16,27.196 21.928,27.196 Z M23.93,22.1 C23.93,20.014 23.23,18.88 21.928,18.88 C20.626,18.88 19.94,20.014 19.94,22.1 C19.94,24.186 20.626,25.306 21.928,25.306 C23.23,25.306 23.93,24.172 23.93,22.1 Z" id="10" fill="#FFFFFF"/>
                      </g>
                  </g>
              </g>
          </g>
      </g>
  </g>
</svg>